<mxfile host="app.diagrams.net" modified="2023-07-16T21:23:29.101Z" agent="Mozilla/5.0 (Windows NT 10.0; Win64; x64) AppleWebKit/537.36 (KHTML, like Gecko) Chrome/114.0.0.0 Safari/537.36" etag="6bP8cBQMEpN-RyHGfbeC" version="21.1.0" type="device">
  <diagram name="Page-1" id="4Gy_bDBG1OQVKbwCDC3K">
    <mxGraphModel dx="1674" dy="777" grid="1" gridSize="10" guides="1" tooltips="1" connect="1" arrows="1" fold="1" page="1" pageScale="1" pageWidth="850" pageHeight="1100" math="0" shadow="0">
      <root>
        <mxCell id="0" />
        <mxCell id="1" parent="0" />
        <mxCell id="e89wq8Fbd3lWtIG_crRo-3" value="" style="sketch=0;points=[[0,0,0],[0.25,0,0],[0.5,0,0],[0.75,0,0],[1,0,0],[0,1,0],[0.25,1,0],[0.5,1,0],[0.75,1,0],[1,1,0],[0,0.25,0],[0,0.5,0],[0,0.75,0],[1,0.25,0],[1,0.5,0],[1,0.75,0]];outlineConnect=0;fontColor=#232F3E;gradientColor=#FF4F8B;gradientDirection=north;fillColor=#BC1356;strokeColor=#ffffff;dashed=0;verticalLabelPosition=bottom;verticalAlign=top;align=center;html=1;fontSize=12;fontStyle=0;aspect=fixed;shape=mxgraph.aws4.resourceIcon;resIcon=mxgraph.aws4.sqs;" vertex="1" parent="1">
          <mxGeometry x="837" y="370" width="50" height="50" as="geometry" />
        </mxCell>
        <mxCell id="e89wq8Fbd3lWtIG_crRo-7" value="" style="sketch=0;points=[[0,0,0],[0.25,0,0],[0.5,0,0],[0.75,0,0],[1,0,0],[0,1,0],[0.25,1,0],[0.5,1,0],[0.75,1,0],[1,1,0],[0,0.25,0],[0,0.5,0],[0,0.75,0],[1,0.25,0],[1,0.5,0],[1,0.75,0]];outlineConnect=0;fontColor=#232F3E;gradientColor=#FF4F8B;gradientDirection=north;fillColor=#BC1356;strokeColor=#ffffff;dashed=0;verticalLabelPosition=bottom;verticalAlign=top;align=center;html=1;fontSize=12;fontStyle=0;aspect=fixed;shape=mxgraph.aws4.resourceIcon;resIcon=mxgraph.aws4.sqs;" vertex="1" parent="1">
          <mxGeometry x="1050" y="470" width="50" height="50" as="geometry" />
        </mxCell>
        <mxCell id="e89wq8Fbd3lWtIG_crRo-18" value="" style="endArrow=none;dashed=1;html=1;dashPattern=1 3;strokeWidth=2;rounded=0;" edge="1" parent="1">
          <mxGeometry width="50" height="50" relative="1" as="geometry">
            <mxPoint x="1200" y="320" as="sourcePoint" />
            <mxPoint x="560" y="320" as="targetPoint" />
          </mxGeometry>
        </mxCell>
        <mxCell id="e89wq8Fbd3lWtIG_crRo-19" value="" style="endArrow=none;dashed=1;html=1;dashPattern=1 3;strokeWidth=2;rounded=0;" edge="1" parent="1">
          <mxGeometry width="50" height="50" relative="1" as="geometry">
            <mxPoint x="1200" y="1000" as="sourcePoint" />
            <mxPoint x="1200" y="320" as="targetPoint" />
          </mxGeometry>
        </mxCell>
        <mxCell id="e89wq8Fbd3lWtIG_crRo-20" value="&lt;font style=&quot;font-size: 18px;&quot;&gt;CORE BANKING SYSTEM&lt;/font&gt;" style="rounded=0;whiteSpace=wrap;html=1;rotation=90;" vertex="1" parent="1">
          <mxGeometry x="1099.5" y="560.5" width="280" height="43" as="geometry" />
        </mxCell>
        <mxCell id="e89wq8Fbd3lWtIG_crRo-25" value="" style="dashed=1;dashPattern=8 4;endArrow=blockThin;endFill=1;startArrow=oval;startFill=0;endSize=6;startSize=4;html=1;rounded=0;entryX=1;entryY=0.5;entryDx=0;entryDy=0;entryPerimeter=0;exitX=0.25;exitY=1;exitDx=0;exitDy=0;" edge="1" parent="1" source="e89wq8Fbd3lWtIG_crRo-20" target="e89wq8Fbd3lWtIG_crRo-7">
          <mxGeometry width="160" relative="1" as="geometry">
            <mxPoint x="1225" y="647" as="sourcePoint" />
            <mxPoint x="1130" y="700" as="targetPoint" />
          </mxGeometry>
        </mxCell>
        <mxCell id="e89wq8Fbd3lWtIG_crRo-26" value="" style="dashed=1;dashPattern=8 4;endArrow=blockThin;endFill=1;startArrow=oval;startFill=0;endSize=6;startSize=4;html=1;rounded=0;exitX=0;exitY=0.5;exitDx=0;exitDy=0;exitPerimeter=0;entryX=0.75;entryY=0;entryDx=0;entryDy=0;entryPerimeter=0;" edge="1" parent="1" source="e89wq8Fbd3lWtIG_crRo-7" target="e89wq8Fbd3lWtIG_crRo-34">
          <mxGeometry width="160" relative="1" as="geometry">
            <mxPoint x="1234" y="674" as="sourcePoint" />
            <mxPoint x="893" y="520" as="targetPoint" />
          </mxGeometry>
        </mxCell>
        <mxCell id="e89wq8Fbd3lWtIG_crRo-27" value="" style="endArrow=none;dashed=1;html=1;dashPattern=1 3;strokeWidth=2;rounded=0;" edge="1" parent="1">
          <mxGeometry width="50" height="50" relative="1" as="geometry">
            <mxPoint x="560" y="1000" as="sourcePoint" />
            <mxPoint x="560" y="320" as="targetPoint" />
          </mxGeometry>
        </mxCell>
        <mxCell id="e89wq8Fbd3lWtIG_crRo-28" value="" style="endArrow=none;dashed=1;html=1;dashPattern=1 3;strokeWidth=2;rounded=0;" edge="1" parent="1">
          <mxGeometry width="50" height="50" relative="1" as="geometry">
            <mxPoint x="1200" y="1000" as="sourcePoint" />
            <mxPoint x="560" y="1000" as="targetPoint" />
          </mxGeometry>
        </mxCell>
        <mxCell id="e89wq8Fbd3lWtIG_crRo-41" style="edgeStyle=orthogonalEdgeStyle;rounded=0;orthogonalLoop=1;jettySize=auto;html=1;exitX=0.5;exitY=1;exitDx=0;exitDy=0;" edge="1" parent="1" source="e89wq8Fbd3lWtIG_crRo-29" target="e89wq8Fbd3lWtIG_crRo-34">
          <mxGeometry relative="1" as="geometry" />
        </mxCell>
        <mxCell id="e89wq8Fbd3lWtIG_crRo-29" value="&lt;font style=&quot;font-size: 18px;&quot;&gt;FRONT-END API&lt;/font&gt;" style="rounded=0;whiteSpace=wrap;html=1;rotation=-90;" vertex="1" parent="1">
          <mxGeometry x="380" y="560.5" width="280" height="42" as="geometry" />
        </mxCell>
        <mxCell id="e89wq8Fbd3lWtIG_crRo-32" value="" style="dashed=1;dashPattern=8 4;endArrow=blockThin;endFill=1;startArrow=oval;startFill=0;endSize=6;startSize=4;html=1;rounded=0;exitX=0.5;exitY=1;exitDx=0;exitDy=0;exitPerimeter=0;entryX=0.5;entryY=0;entryDx=0;entryDy=0;entryPerimeter=0;" edge="1" parent="1" source="e89wq8Fbd3lWtIG_crRo-3" target="e89wq8Fbd3lWtIG_crRo-34">
          <mxGeometry width="160" relative="1" as="geometry">
            <mxPoint x="870" y="430" as="sourcePoint" />
            <mxPoint x="862" y="520" as="targetPoint" />
          </mxGeometry>
        </mxCell>
        <mxCell id="e89wq8Fbd3lWtIG_crRo-33" value="EC2" style="points=[[0,0],[0.25,0],[0.5,0],[0.75,0],[1,0],[1,0.25],[1,0.5],[1,0.75],[1,1],[0.75,1],[0.5,1],[0.25,1],[0,1],[0,0.75],[0,0.5],[0,0.25]];outlineConnect=0;gradientColor=none;html=1;whiteSpace=wrap;fontSize=12;fontStyle=0;container=1;pointerEvents=0;collapsible=0;recursiveResize=0;shape=mxgraph.aws4.group;grIcon=mxgraph.aws4.group_ec2_instance_contents;strokeColor=#D86613;fillColor=none;verticalAlign=top;align=left;spacingLeft=30;fontColor=#D86613;dashed=0;" vertex="1" parent="1">
          <mxGeometry x="717" y="470" width="283" height="290" as="geometry" />
        </mxCell>
        <mxCell id="e89wq8Fbd3lWtIG_crRo-49" style="edgeStyle=orthogonalEdgeStyle;rounded=0;orthogonalLoop=1;jettySize=auto;html=1;exitX=0.25;exitY=1;exitDx=0;exitDy=0;exitPerimeter=0;" edge="1" parent="e89wq8Fbd3lWtIG_crRo-33" source="e89wq8Fbd3lWtIG_crRo-34" target="e89wq8Fbd3lWtIG_crRo-51">
          <mxGeometry relative="1" as="geometry">
            <mxPoint x="66" y="220" as="targetPoint" />
          </mxGeometry>
        </mxCell>
        <mxCell id="e89wq8Fbd3lWtIG_crRo-34" value="" style="outlineConnect=0;dashed=0;verticalLabelPosition=bottom;verticalAlign=top;align=center;html=1;shape=mxgraph.aws3.ec2_compute_container_2;fillColor=#F58534;gradientColor=none;" vertex="1" parent="e89wq8Fbd3lWtIG_crRo-33">
          <mxGeometry x="68.25" y="68" width="153.5" height="88" as="geometry" />
        </mxCell>
        <mxCell id="e89wq8Fbd3lWtIG_crRo-51" value="" style="image;sketch=0;aspect=fixed;html=1;points=[];align=center;fontSize=12;image=img/lib/mscae/Cache_Redis_Product.svg;" vertex="1" parent="e89wq8Fbd3lWtIG_crRo-33">
          <mxGeometry x="33" y="210" width="71.43" height="60" as="geometry" />
        </mxCell>
        <mxCell id="e89wq8Fbd3lWtIG_crRo-40" style="edgeStyle=orthogonalEdgeStyle;rounded=0;orthogonalLoop=1;jettySize=auto;html=1;exitX=1;exitY=0.5;exitDx=0;exitDy=0;exitPerimeter=0;entryX=0.5;entryY=1;entryDx=0;entryDy=0;" edge="1" parent="1" source="e89wq8Fbd3lWtIG_crRo-34" target="e89wq8Fbd3lWtIG_crRo-20">
          <mxGeometry relative="1" as="geometry" />
        </mxCell>
        <mxCell id="e89wq8Fbd3lWtIG_crRo-43" value="&lt;b&gt;&lt;font style=&quot;font-size: 24px;&quot;&gt;CREDIT-CARD-INVOICE&lt;/font&gt;&lt;/b&gt;" style="text;html=1;align=center;verticalAlign=middle;resizable=0;points=[];autosize=1;strokeColor=none;fillColor=none;" vertex="1" parent="1">
          <mxGeometry x="708.5" y="960" width="300" height="40" as="geometry" />
        </mxCell>
        <mxCell id="e89wq8Fbd3lWtIG_crRo-44" value="&lt;font style=&quot;font-size: 18px;&quot;&gt;CUSTOMER INTERNAL SERVICE&lt;/font&gt;" style="rounded=0;whiteSpace=wrap;html=1;rotation=0;" vertex="1" parent="1">
          <mxGeometry x="713" y="260" width="298" height="40" as="geometry" />
        </mxCell>
        <mxCell id="e89wq8Fbd3lWtIG_crRo-46" value="" style="dashed=1;dashPattern=8 4;endArrow=blockThin;endFill=1;startArrow=oval;startFill=0;endSize=6;startSize=4;html=1;rounded=0;exitX=0.5;exitY=1;exitDx=0;exitDy=0;entryX=0.5;entryY=0;entryDx=0;entryDy=0;entryPerimeter=0;" edge="1" parent="1" source="e89wq8Fbd3lWtIG_crRo-44" target="e89wq8Fbd3lWtIG_crRo-3">
          <mxGeometry width="160" relative="1" as="geometry">
            <mxPoint x="872" y="430" as="sourcePoint" />
            <mxPoint x="872" y="542" as="targetPoint" />
          </mxGeometry>
        </mxCell>
        <mxCell id="e89wq8Fbd3lWtIG_crRo-50" value="" style="outlineConnect=0;dashed=0;verticalLabelPosition=bottom;verticalAlign=top;align=center;html=1;shape=mxgraph.aws3.dynamo_db;fillColor=#2E73B8;gradientColor=none;" vertex="1" parent="1">
          <mxGeometry x="900" y="800" width="72" height="81" as="geometry" />
        </mxCell>
        <mxCell id="e89wq8Fbd3lWtIG_crRo-53" style="edgeStyle=orthogonalEdgeStyle;rounded=0;orthogonalLoop=1;jettySize=auto;html=1;exitX=0.75;exitY=1;exitDx=0;exitDy=0;exitPerimeter=0;" edge="1" parent="1" source="e89wq8Fbd3lWtIG_crRo-34" target="e89wq8Fbd3lWtIG_crRo-50">
          <mxGeometry relative="1" as="geometry" />
        </mxCell>
      </root>
    </mxGraphModel>
  </diagram>
</mxfile>
